<svg width="35" height="35" viewBox="0 0 35 35" fill="none" xmlns="http://www.w3.org/2000/svg">
<path d="M7.29167 7.29175H26.25C27.4103 7.29175 28.5231 7.75268 29.3436 8.57316C30.1641 9.39363 30.625 10.5064 30.625 11.6667V24.7917C30.625 25.9521 30.1641 27.0649 29.3436 27.8853C28.5231 28.7058 27.4103 29.1667 26.25 29.1667H7.29167C6.13135 29.1667 5.01855 28.7058 4.19808 27.8853C3.37761 27.0649 2.91667 25.9521 2.91667 24.7917V11.6667C2.91667 10.5064 3.37761 9.39363 4.19808 8.57316C5.01855 7.75268 6.13135 7.29175 7.29167 7.29175ZM7.29167 8.75008C6.56251 8.75008 5.92084 8.998 5.42501 9.4355L16.7708 16.7709L28.1167 9.4355C27.6208 8.998 26.9792 8.75008 26.25 8.75008H7.29167ZM16.7708 18.5355L4.56459 10.6167C4.44792 10.9376 4.37501 11.3022 4.37501 11.6667V24.7917C4.37501 25.5653 4.6823 26.3072 5.22928 26.8541C5.77626 27.4011 6.51812 27.7084 7.29167 27.7084H26.25C27.0236 27.7084 27.7654 27.4011 28.3124 26.8541C28.8594 26.3072 29.1667 25.5653 29.1667 24.7917V11.6667C29.1667 11.3022 29.0938 10.9376 28.9771 10.6167L16.7708 18.5355Z" fill="white"/>
</svg>
