<svg width="36" height="36" viewBox="0 0 36 36" fill="none" xmlns="http://www.w3.org/2000/svg">
<g clip-path="url(#clip0_46_209)">
<path d="M17.629 35.258C27.3652 35.258 35.258 27.3652 35.258 17.629C35.258 7.89277 27.3652 0 17.629 0C7.89277 0 0 7.89277 0 17.629C0 27.3652 7.89277 35.258 17.629 35.258Z" fill="white"/>
<path d="M17.537 12.3392C14.6588 12.3392 12.3359 14.6621 12.3359 17.5403C12.3359 20.4185 14.6588 22.7414 17.537 22.7414C20.4152 22.7414 22.7381 20.4185 22.7381 17.5403C22.7381 14.6621 20.4152 12.3392 17.537 12.3392ZM17.537 20.9206C15.6757 20.9206 14.1567 19.4016 14.1567 17.5403C14.1567 15.679 15.6757 14.16 17.537 14.16C19.3984 14.16 20.9173 15.679 20.9173 17.5403C20.9173 19.4016 19.3984 20.9206 17.537 20.9206ZM22.9511 10.9141C22.2791 10.9141 21.7364 11.4567 21.7364 12.1287C21.7364 12.8008 22.2791 13.3434 22.9511 13.3434C23.6231 13.3434 24.1658 12.8033 24.1658 12.1287C24.1633 11.4542 23.6231 10.9141 22.9511 10.9141Z" fill="#2E2E2E"/>
<path d="M27.6749 17.541C27.6749 16.1411 27.6876 14.754 27.609 13.3568C27.5304 11.7338 27.1601 10.2934 25.9733 9.10662C24.784 7.9173 23.3462 7.5496 21.7232 7.47098C20.3234 7.39237 18.9363 7.40505 17.539 7.40505C16.1392 7.40505 14.7521 7.39237 13.3548 7.47098C11.7318 7.5496 10.2915 7.91983 9.10467 9.10662C7.91535 10.296 7.54764 11.7338 7.46903 13.3568C7.39042 14.7566 7.4031 16.1437 7.4031 17.541C7.4031 18.9382 7.39042 20.3279 7.46903 21.7251C7.54764 23.3481 7.91788 24.7885 9.10467 25.9753C10.294 27.1646 11.7318 27.5323 13.3548 27.6109C14.7546 27.6895 16.1417 27.6769 17.539 27.6769C18.9388 27.6769 20.3259 27.6895 21.7232 27.6109C23.3462 27.5323 24.7865 27.1621 25.9733 25.9753C27.1627 24.7859 27.5304 23.3481 27.609 21.7251C27.6901 20.3279 27.6749 18.9408 27.6749 17.541ZM25.4433 23.5205C25.2582 23.9821 25.035 24.327 24.6775 24.682C24.3199 25.0395 23.9776 25.2627 23.5161 25.4478C22.1822 25.9778 19.0149 25.8586 17.5365 25.8586C16.058 25.8586 12.8882 25.9778 11.5543 25.4504C11.0928 25.2652 10.7479 25.0421 10.3929 24.6845C10.0353 24.327 9.81218 23.9846 9.62706 23.5231C9.0996 22.1867 9.21879 19.0194 9.21879 17.541C9.21879 16.0625 9.0996 12.8927 9.62706 11.5588C9.81218 11.0973 10.0353 10.7524 10.3929 10.3974C10.7505 10.0424 11.0928 9.81667 11.5543 9.63155C12.8882 9.10409 16.058 9.22327 17.5365 9.22327C19.0149 9.22327 22.1847 9.10409 23.5186 9.63155C23.9801 9.81667 24.325 10.0398 24.68 10.3974C25.0376 10.7549 25.2607 11.0973 25.4459 11.5588C25.9733 12.8927 25.8541 16.0625 25.8541 17.541C25.8541 19.0194 25.9733 22.1867 25.4433 23.5205Z" fill="#2E2E2E"/>
</g>
<defs>
<clipPath id="clip0_46_209">
<rect width="36" height="36" fill="white"/>
</clipPath>
</defs>
</svg>
