<svg width="36" height="36" viewBox="0 0 36 36" fill="none" xmlns="http://www.w3.org/2000/svg">
<g clip-path="url(#clip0_46_206)">
<path d="M17.629 35.258C27.3652 35.258 35.258 27.3652 35.258 17.629C35.258 7.89277 27.3652 0 17.629 0C7.89277 0 0 7.89277 0 17.629C0 27.3652 7.89277 35.258 17.629 35.258Z" fill="white"/>
<path d="M8.60467 13.5709H12.5741V26.7647H8.60467V13.5709ZM10.5997 8.28516C10.0542 8.28516 9.53107 8.50184 9.14537 8.88755C8.75966 9.27326 8.54297 9.79639 8.54297 10.3419C8.57192 10.8675 8.80133 11.362 9.18394 11.7236C9.56656 12.0852 10.0733 12.2863 10.5997 12.2855C11.1261 12.2863 11.6328 12.0852 12.0154 11.7236C12.398 11.362 12.6274 10.8675 12.6564 10.3419C12.6564 9.79639 12.4397 9.27326 12.054 8.88755C11.6683 8.50184 11.1452 8.28516 10.5997 8.28516ZM25.7679 15.3191C25.3656 14.8552 24.8604 14.4917 24.2926 14.2578C23.7248 14.0239 23.1101 13.926 22.4978 13.972C21.7063 13.9536 20.9247 14.1505 20.2364 14.5417C19.5482 14.9329 18.9791 15.5038 18.59 16.1932H18.5283V13.5709H15.1964C15.2581 14.9181 15.1964 26.7647 15.1964 26.7647H19.1659V18.5687C19.2569 18.118 19.5081 17.7155 19.873 17.4357C20.2379 17.1559 20.6917 17.0178 21.1506 17.0468C22.4361 17.0468 23.0736 17.9826 23.0736 19.7925V26.7956H27.0534V19.2886C27.1331 17.8516 26.6749 16.4365 25.7679 15.3191Z" fill="#2E2E2E"/>
</g>
<defs>
<clipPath id="clip0_46_206">
<rect width="36" height="36" fill="white"/>
</clipPath>
</defs>
</svg>
