<svg width="40" height="40" viewBox="0 0 40 40" fill="none" xmlns="http://www.w3.org/2000/svg">
<path d="M26 17.9999C26 19.5912 25.3679 21.1174 24.2427 22.2426C23.1174 23.3678 21.5913 23.9999 20 23.9999C18.4087 23.9999 16.8826 23.3678 15.7574 22.2426C14.6322 21.1174 14 19.5912 14 17.9999C14 16.4086 14.6322 14.8825 15.7574 13.7573C16.8826 12.6321 18.4087 11.9999 20 11.9999C21.5913 11.9999 23.1174 12.6321 24.2427 13.7573C25.3679 14.8825 26 16.4086 26 17.9999ZM24 17.9999C24 16.9391 23.5786 15.9217 22.8284 15.1715C22.0783 14.4214 21.0609 13.9999 20 13.9999C18.9391 13.9999 17.9217 14.4214 17.1716 15.1715C16.4214 15.9217 16 16.9391 16 17.9999C16 19.0608 16.4214 20.0782 17.1716 20.8284C17.9217 21.5785 18.9391 21.9999 20 21.9999C21.0609 21.9999 22.0783 21.5785 22.8284 20.8284C23.5786 20.0782 24 19.0608 24 17.9999ZM29.9 27.9099C32.5258 25.2828 34.0009 21.7204 34.0009 18.0059C34.0009 14.2915 32.5258 10.7291 29.9 8.10194C28.6002 6.80129 27.0569 5.76951 25.3582 5.06555C23.6595 4.3616 21.8388 3.99927 20 3.99927C18.1612 3.99927 16.3405 4.3616 14.6418 5.06555C12.9431 5.76951 11.3998 6.80129 10.1 8.10194C7.4742 10.7291 5.99915 14.2915 5.99915 18.0059C5.99915 21.7204 7.4742 25.2828 10.1 27.9099L13.142 30.9079L17.228 34.8779L17.494 35.1139C19.044 36.3699 21.314 36.2899 22.774 34.8779L27.644 30.1379L29.9 27.9099ZM11.51 9.51194C12.6248 8.39669 13.9483 7.51201 15.405 6.90842C16.8618 6.30482 18.4232 5.99415 20 5.99415C21.5769 5.99415 23.1382 6.30482 24.595 6.90842C26.0517 7.51201 27.3753 8.39669 28.49 9.51194C30.6794 11.7028 31.9383 14.6546 32.0039 17.7512C32.0695 20.8479 30.9367 23.8503 28.842 26.1319L28.49 26.4999L25.848 29.1079L21.388 33.4459L21.2 33.6059C20.854 33.8662 20.4327 34.0068 19.9997 34.0064C19.5667 34.0061 19.1456 33.8648 18.8 33.6039L18.614 33.4439L12.654 27.6339L11.51 26.4999L11.158 26.1339C9.06331 23.8523 7.93057 20.8499 7.99616 17.7532C8.06174 14.6566 9.32058 11.7028 11.51 9.51194Z" fill="white" fill-opacity="0.5"/>
</svg>
