<svg width="40" height="40" viewBox="0 0 40 40" fill="none" xmlns="http://www.w3.org/2000/svg">
<path d="M34.4969 25.3329L27.1188 22.0314C26.8327 21.9076 26.5204 21.8571 26.2099 21.8843C25.8995 21.9116 25.6007 22.0159 25.3406 22.1876C25.3198 22.2008 25.3 22.2154 25.2813 22.2314L21.4063 25.5345C21.32 25.5871 21.2222 25.6176 21.1213 25.6233C21.0205 25.6291 20.9198 25.6098 20.8281 25.5673C18.2906 24.3423 15.6641 21.7361 14.4391 19.2283C14.3957 19.1373 14.3756 19.0371 14.3805 18.9364C14.3854 18.8358 14.4152 18.738 14.4672 18.6517L17.7797 14.7126C17.7953 14.6939 17.8094 14.6736 17.8235 14.6533C17.9947 14.3936 18.0986 14.0954 18.1259 13.7855C18.1532 13.4756 18.1029 13.1639 17.9797 12.8783L14.6719 5.51263C14.5122 5.13958 14.2358 4.8284 13.8842 4.62583C13.5326 4.42326 13.1247 4.34022 12.7219 4.3892C10.7556 4.64845 8.95091 5.61461 7.64491 7.10722C6.33891 8.59983 5.62091 10.5168 5.62502 12.5001C5.62502 24.5626 15.4375 34.3751 27.5 34.3751C29.4833 34.3792 31.4003 33.6612 32.8929 32.3552C34.3855 31.0492 35.3517 29.2446 35.611 27.2783C35.6596 26.8773 35.5774 26.4713 35.3767 26.1208C35.1759 25.7703 34.8673 25.4939 34.4969 25.3329ZM34.375 27.122C34.1544 28.7872 33.3348 30.3151 32.0695 31.4199C30.8042 32.5248 29.1798 33.131 27.5 33.1251C16.1281 33.1251 6.87502 23.872 6.87502 12.5001C6.8692 10.8204 7.47538 9.19597 8.58021 7.93067C9.68505 6.66537 11.2129 5.84578 12.8781 5.62513C12.9031 5.62358 12.9282 5.62358 12.9531 5.62513C13.0764 5.62618 13.1967 5.66368 13.2987 5.73291C13.4008 5.80214 13.48 5.90001 13.5266 6.0142L16.825 13.3798C16.8635 13.4698 16.8803 13.5676 16.8741 13.6654C16.8678 13.7631 16.8387 13.8579 16.7891 13.9423L13.4781 17.8798C13.4625 17.9001 13.4469 17.9189 13.4328 17.9408C13.2564 18.2105 13.1526 18.5212 13.1312 18.8427C13.1099 19.1643 13.1718 19.486 13.311 19.7767C14.6688 22.5564 17.4688 25.3361 20.2797 26.6939C20.5724 26.8322 20.8959 26.8923 21.2187 26.8685C21.5415 26.8447 21.8527 26.7377 22.1219 26.5579L22.1797 26.5142L26.0594 23.2142C26.1424 23.1635 26.2362 23.1332 26.3332 23.1259C26.4302 23.1186 26.5275 23.1344 26.6172 23.172L33.9938 26.4783C34.1183 26.5301 34.2226 26.6208 34.2914 26.7368C34.3601 26.8528 34.3894 26.9879 34.375 27.122Z" fill="white" fill-opacity="0.8"/>
</svg>
