<svg width="11" height="15" viewBox="0 0 11 15" fill="none" xmlns="http://www.w3.org/2000/svg">
<path d="M4.60938 11.4746C4.60286 11.2402 4.59961 11.0645 4.59961 10.9473C4.59961 10.2572 4.69727 9.66146 4.89258 9.16016C5.03581 8.78255 5.26693 8.40169 5.58594 8.01758C5.82031 7.73763 6.24023 7.33073 6.8457 6.79688C7.45768 6.25651 7.85482 5.82682 8.03711 5.50781C8.2194 5.1888 8.31055 4.84049 8.31055 4.46289C8.31055 3.7793 8.04362 3.18034 7.50977 2.66602C6.97591 2.14518 6.32161 1.88477 5.54688 1.88477C4.79818 1.88477 4.17318 2.11914 3.67188 2.58789C3.17057 3.05664 2.8418 3.78906 2.68555 4.78516L0.878906 4.57031C1.04167 3.23568 1.52344 2.21354 2.32422 1.50391C3.13151 0.794271 4.19596 0.439453 5.51758 0.439453C6.91732 0.439453 8.03385 0.820312 8.86719 1.58203C9.70052 2.34375 10.1172 3.26497 10.1172 4.3457C10.1172 4.9707 9.9707 5.54688 9.67773 6.07422C9.38477 6.60156 8.81185 7.24284 7.95898 7.99805C7.38607 8.50586 7.01172 8.88021 6.83594 9.12109C6.66016 9.36198 6.52995 9.63867 6.44531 9.95117C6.36068 10.2637 6.31185 10.7715 6.29883 11.4746H4.60938ZM4.50195 15V12.998H6.50391V15H4.50195Z" fill="white"/>
</svg>
