<svg width="36" height="36" viewBox="0 0 36 36" fill="none" xmlns="http://www.w3.org/2000/svg">
<path d="M18 34.9401C27.3557 34.9401 34.94 27.3558 34.94 18.0001C34.94 8.64436 27.3557 1.06006 18 1.06006C8.64429 1.06006 1.06 8.64436 1.06 18.0001C1.06 27.3558 8.64429 34.9401 18 34.9401Z" fill="white"/>
<path d="M10.48 10.85L16.36 19.4L17.03 20.37L21.24 26.48L21.59 26.99H26.76L25.5 25.16L19.9 17.03L19.23 16.06L14.73 9.53002L14.38 9.02002H9.20999L10.47 10.85H10.48ZM13.78 10.19L18.45 16.98L19.12 17.95L24.54 25.83H22.21L17.83 19.46L17.16 18.49L11.45 10.2H13.78V10.19Z" fill="#2E2E2E"/>
<path d="M19.11 17.94L18.45 16.97L19.24 16.05L25.29 9.02002H26.78L19.9 17.02L19.11 17.94Z" fill="#2E2E2E"/>
<path d="M9.84 26.98L16.37 19.4L17.15 18.48L17.82 19.45L17.03 20.36L12.61 25.51L11.33 26.98H9.84Z" fill="#2E2E2E"/>
</svg>
