<svg width="36" height="36" viewBox="0 0 36 36" fill="none" xmlns="http://www.w3.org/2000/svg">
<g clip-path="url(#clip0_46_195)">
<path d="M17.629 35.258C27.3652 35.258 35.258 27.3652 35.258 17.629C35.258 7.89277 27.3652 0 17.629 0C7.89277 0 0 7.89277 0 17.629C0 27.3652 7.89277 35.258 17.629 35.258Z" fill="white"/>
<path d="M27.6475 13.6546C27.6475 13.6546 27.4492 12.257 26.8397 11.6431C26.0674 10.8353 25.2046 10.8315 24.8086 10.784C21.9735 10.5781 17.7167 10.5781 17.7167 10.5781H17.7091C17.7091 10.5781 13.4524 10.5781 10.6173 10.784C10.2213 10.8315 9.35843 10.8353 8.58614 11.6431C7.97604 12.257 7.78218 13.6546 7.78218 13.6546C7.78218 13.6546 7.58008 15.2942 7.58008 16.937V18.4733C7.58008 20.1123 7.78218 21.7557 7.78218 21.7557C7.78218 21.7557 7.98048 23.1533 8.58614 23.7672C9.35843 24.5749 10.3721 24.5471 10.8232 24.6345C12.4469 24.7891 17.7167 24.8366 17.7167 24.8366C17.7167 24.8366 21.9773 24.829 24.8124 24.6269C25.2084 24.5794 26.0719 24.5756 26.8435 23.7678C27.453 23.1539 27.6513 21.7563 27.6513 21.7563C27.6513 21.7563 27.8534 20.1174 27.8534 18.4739V16.9376C27.8496 15.298 27.6475 13.6546 27.6475 13.6546ZM15.6184 20.3385V14.6404L21.0948 17.4996L15.6184 20.3385Z" fill="#2E2E2E"/>
</g>
<defs>
<clipPath id="clip0_46_195">
<rect width="36" height="36" fill="white"/>
</clipPath>
</defs>
</svg>
